<svg width="683" height="182" viewBox="0 0 683 182" fill="none" xmlns="http://www.w3.org/2000/svg">
<g clip-path="url(#clip0_901_7)">
<path d="M177.057 125V66.8182H189.358V114.858H214.301V125H177.057ZM220.62 125V81.3636H232.722V125H220.62ZM226.7 75.7386C224.9 75.7386 223.357 75.142 222.069 73.9489C220.8 72.7367 220.166 71.2879 220.166 69.6023C220.166 67.9356 220.8 66.5057 222.069 65.3125C223.357 64.1004 224.9 63.4943 226.7 63.4943C228.499 63.4943 230.033 64.1004 231.302 65.3125C232.59 66.5057 233.234 67.9356 233.234 69.6023C233.234 71.2879 232.59 72.7367 231.302 73.9489C230.033 75.142 228.499 75.7386 226.7 75.7386ZM251.783 112.443L251.811 97.9261H253.573L267.55 81.3636H281.442L262.664 103.295H259.794L251.783 112.443ZM240.817 125V66.8182H252.919V125H240.817ZM268.09 125L255.249 105.994L263.317 97.4432L282.266 125H268.09ZM298.223 125.824C295.439 125.824 292.958 125.341 290.78 124.375C288.602 123.39 286.878 121.941 285.609 120.028C284.359 118.097 283.734 115.691 283.734 112.812C283.734 110.388 284.179 108.352 285.069 106.705C285.959 105.057 287.172 103.731 288.706 102.727C290.24 101.723 291.982 100.966 293.933 100.455C295.903 99.9432 297.967 99.5833 300.126 99.375C302.664 99.1098 304.709 98.8636 306.262 98.6364C307.816 98.3902 308.942 98.0303 309.643 97.5568C310.344 97.0833 310.694 96.3826 310.694 95.4545V95.2841C310.694 93.4848 310.126 92.0928 308.99 91.108C307.872 90.1231 306.281 89.6307 304.217 89.6307C302.039 89.6307 300.306 90.1136 299.018 91.0795C297.73 92.0265 296.878 93.2197 296.461 94.6591L285.268 93.75C285.836 91.0985 286.954 88.8068 288.62 86.875C290.287 84.9242 292.437 83.428 295.069 82.3864C297.721 81.3258 300.789 80.7955 304.274 80.7955C306.698 80.7955 309.018 81.0795 311.234 81.6477C313.469 82.2159 315.448 83.0966 317.172 84.2898C318.914 85.483 320.287 87.017 321.291 88.892C322.295 90.7481 322.797 92.9735 322.797 95.5682V125H311.319V118.949H310.978C310.278 120.312 309.34 121.515 308.166 122.557C306.992 123.58 305.581 124.384 303.933 124.972C302.285 125.54 300.382 125.824 298.223 125.824ZM301.689 117.472C303.469 117.472 305.041 117.121 306.405 116.42C307.768 115.701 308.838 114.735 309.615 113.523C310.391 112.311 310.78 110.937 310.78 109.403V104.773C310.401 105.019 309.88 105.246 309.217 105.455C308.573 105.644 307.844 105.824 307.03 105.994C306.215 106.146 305.401 106.288 304.586 106.42C303.772 106.534 303.033 106.638 302.37 106.733C300.95 106.941 299.709 107.273 298.649 107.727C297.588 108.182 296.764 108.797 296.177 109.574C295.59 110.331 295.297 111.278 295.297 112.415C295.297 114.062 295.893 115.322 297.086 116.193C298.298 117.045 299.833 117.472 301.689 117.472ZM330.813 125V66.8182H342.915V88.6932H343.285C343.815 87.5189 344.582 86.3258 345.586 85.1136C346.609 83.8826 347.934 82.8598 349.563 82.0455C351.211 81.2121 353.256 80.7955 355.699 80.7955C358.881 80.7955 361.817 81.6288 364.506 83.2955C367.196 84.9432 369.345 87.4337 370.955 90.767C372.565 94.0814 373.37 98.2386 373.37 103.239C373.37 108.106 372.584 112.216 371.012 115.568C369.459 118.902 367.338 121.43 364.648 123.153C361.978 124.858 358.985 125.71 355.671 125.71C353.323 125.71 351.324 125.322 349.677 124.545C348.048 123.769 346.713 122.794 345.671 121.619C344.629 120.426 343.834 119.223 343.285 118.011H342.745V125H330.813ZM342.66 103.182C342.66 105.777 343.02 108.04 343.739 109.972C344.459 111.903 345.501 113.409 346.864 114.489C348.228 115.549 349.885 116.08 351.836 116.08C353.806 116.08 355.472 115.54 356.836 114.46C358.199 113.362 359.232 111.847 359.932 109.915C360.652 107.964 361.012 105.72 361.012 103.182C361.012 100.663 360.662 98.447 359.961 96.5341C359.26 94.6212 358.228 93.125 356.864 92.0455C355.501 90.9659 353.824 90.4261 351.836 90.4261C349.866 90.4261 348.199 90.947 346.836 91.9886C345.491 93.0303 344.459 94.5076 343.739 96.4205C343.02 98.3333 342.66 100.587 342.66 103.182ZM391.947 66.8182V125H379.845V66.8182H391.947ZM419.928 125.852C415.44 125.852 411.576 124.943 408.337 123.125C405.118 121.288 402.637 118.693 400.894 115.341C399.152 111.97 398.281 107.983 398.281 103.381C398.281 98.892 399.152 94.9527 400.894 91.5625C402.637 88.1723 405.089 85.5303 408.252 83.6364C411.434 81.7424 415.165 80.7955 419.445 80.7955C422.324 80.7955 425.004 81.2595 427.485 82.1875C429.985 83.0966 432.163 84.4697 434.019 86.3068C435.894 88.1439 437.353 90.4545 438.394 93.2386C439.436 96.0038 439.957 99.2424 439.957 102.955V106.278H403.11V98.7784H428.565C428.565 97.036 428.186 95.4924 427.428 94.1477C426.671 92.803 425.62 91.7519 424.275 90.9943C422.949 90.2178 421.406 89.8295 419.644 89.8295C417.807 89.8295 416.178 90.2557 414.758 91.108C413.356 91.9413 412.258 93.0682 411.462 94.4886C410.667 95.8902 410.26 97.4527 410.241 99.1761V106.307C410.241 108.466 410.639 110.331 411.434 111.903C412.248 113.475 413.394 114.688 414.872 115.54C416.349 116.392 418.101 116.818 420.127 116.818C421.472 116.818 422.703 116.629 423.82 116.25C424.938 115.871 425.894 115.303 426.69 114.545C427.485 113.788 428.091 112.86 428.508 111.761L439.701 112.5C439.133 115.189 437.968 117.538 436.207 119.545C434.464 121.534 432.211 123.087 429.445 124.205C426.699 125.303 423.527 125.852 419.928 125.852Z" fill="black"/>
<path d="M478.044 83.5511C477.817 81.2595 476.842 79.4792 475.118 78.2102C473.395 76.9413 471.056 76.3068 468.101 76.3068C466.094 76.3068 464.398 76.5909 463.016 77.1591C461.633 77.7083 460.573 78.4754 459.834 79.4602C459.114 80.4451 458.755 81.5625 458.755 82.8125C458.717 83.8542 458.934 84.7633 459.408 85.5398C459.9 86.3163 460.573 86.9886 461.425 87.5568C462.277 88.1061 463.262 88.589 464.38 89.0057C465.497 89.4034 466.69 89.7443 467.959 90.0284L473.186 91.2784C475.724 91.8466 478.054 92.6042 480.175 93.5511C482.296 94.4981 484.133 95.6629 485.686 97.0455C487.239 98.428 488.442 100.057 489.294 101.932C490.166 103.807 490.611 105.956 490.63 108.381C490.611 111.941 489.702 115.028 487.902 117.642C486.122 120.237 483.546 122.254 480.175 123.693C476.823 125.114 472.779 125.824 468.044 125.824C463.347 125.824 459.256 125.104 455.772 123.665C452.306 122.225 449.597 120.095 447.647 117.273C445.715 114.432 444.702 110.919 444.607 106.733H456.51C456.643 108.684 457.202 110.312 458.186 111.619C459.19 112.907 460.525 113.883 462.192 114.545C463.878 115.189 465.781 115.511 467.902 115.511C469.986 115.511 471.794 115.208 473.328 114.602C474.881 113.996 476.084 113.153 476.936 112.074C477.789 110.994 478.215 109.754 478.215 108.352C478.215 107.045 477.827 105.947 477.05 105.057C476.292 104.167 475.175 103.409 473.698 102.784C472.239 102.159 470.45 101.591 468.328 101.08L461.993 99.4886C457.088 98.2955 453.215 96.4299 450.374 93.892C447.533 91.3542 446.122 87.9356 446.141 83.6364C446.122 80.1136 447.059 77.036 448.953 74.4034C450.866 71.7708 453.489 69.7159 456.823 68.2386C460.156 66.7614 463.944 66.0227 468.186 66.0227C472.505 66.0227 476.273 66.7614 479.493 68.2386C482.732 69.7159 485.251 71.7708 487.05 74.4034C488.849 77.036 489.777 80.0852 489.834 83.5511H478.044ZM520.287 81.3636V90.4545H494.008V81.3636H520.287ZM499.974 70.9091H512.076V111.591C512.076 112.708 512.247 113.58 512.588 114.205C512.929 114.811 513.402 115.237 514.008 115.483C514.633 115.729 515.353 115.852 516.167 115.852C516.736 115.852 517.304 115.805 517.872 115.71C518.44 115.597 518.876 115.511 519.179 115.455L521.082 124.46C520.476 124.65 519.624 124.867 518.525 125.114C517.427 125.379 516.092 125.54 514.52 125.597C511.603 125.71 509.046 125.322 506.849 124.432C504.671 123.542 502.976 122.159 501.764 120.284C500.552 118.409 499.955 116.042 499.974 113.182V70.9091ZM545.817 125.852C541.404 125.852 537.588 124.915 534.368 123.04C531.168 121.146 528.696 118.513 526.954 115.142C525.211 111.752 524.34 107.822 524.34 103.352C524.34 98.8447 525.211 94.9053 526.954 91.5341C528.696 88.1439 531.168 85.5114 534.368 83.6364C537.588 81.7424 541.404 80.7955 545.817 80.7955C550.23 80.7955 554.037 81.7424 557.238 83.6364C560.457 85.5114 562.939 88.1439 564.681 91.5341C566.423 94.9053 567.295 98.8447 567.295 103.352C567.295 107.822 566.423 111.752 564.681 115.142C562.939 118.513 560.457 121.146 557.238 123.04C554.037 124.915 550.23 125.852 545.817 125.852ZM545.874 116.477C547.882 116.477 549.558 115.909 550.903 114.773C552.247 113.617 553.261 112.045 553.942 110.057C554.643 108.068 554.993 105.805 554.993 103.267C554.993 100.729 554.643 98.4659 553.942 96.4773C553.261 94.4886 552.247 92.9167 550.903 91.7614C549.558 90.6061 547.882 90.0284 545.874 90.0284C543.848 90.0284 542.143 90.6061 540.761 91.7614C539.397 92.9167 538.365 94.4886 537.664 96.4773C536.982 98.4659 536.641 100.729 536.641 103.267C536.641 105.805 536.982 108.068 537.664 110.057C538.365 112.045 539.397 113.617 540.761 114.773C542.143 115.909 543.848 116.477 545.874 116.477ZM593.28 125.852C588.81 125.852 584.965 124.905 581.746 123.011C578.545 121.098 576.083 118.447 574.359 115.057C572.655 111.667 571.803 107.765 571.803 103.352C571.803 98.8826 572.664 94.9621 574.388 91.5909C576.13 88.2008 578.602 85.5587 581.803 83.6648C585.003 81.7519 588.81 80.7955 593.223 80.7955C597.03 80.7955 600.363 81.4867 603.223 82.8693C606.083 84.2519 608.346 86.1932 610.013 88.6932C611.679 91.1932 612.598 94.1288 612.768 97.5H601.348C601.026 95.322 600.174 93.5701 598.791 92.2443C597.428 90.8996 595.638 90.2273 593.422 90.2273C591.547 90.2273 589.909 90.7386 588.507 91.7614C587.125 92.7652 586.045 94.233 585.268 96.1648C584.492 98.0966 584.104 100.436 584.104 103.182C584.104 105.966 584.482 108.333 585.24 110.284C586.017 112.235 587.106 113.722 588.507 114.744C589.909 115.767 591.547 116.278 593.422 116.278C594.804 116.278 596.045 115.994 597.143 115.426C598.261 114.858 599.179 114.034 599.899 112.955C600.638 111.856 601.121 110.54 601.348 109.006H612.768C612.579 112.339 611.67 115.275 610.041 117.812C608.431 120.331 606.206 122.301 603.365 123.722C600.524 125.142 597.162 125.852 593.28 125.852ZM629.883 112.443L629.911 97.9261H631.673L645.65 81.3636H659.542L640.764 103.295H637.894L629.883 112.443ZM618.917 125V66.8182H631.019V125H618.917ZM646.19 125L633.349 105.994L641.417 97.4432L660.366 125H646.19Z" fill="#6186B7"/>
<path d="M34.4167 39.625H138.583V60.4583H34.4167V39.625ZM122.958 65.6667H39.625V122.958C39.625 125.721 40.7225 128.371 42.676 130.324C44.6295 132.278 47.279 133.375 50.0417 133.375H122.958C125.721 133.375 128.371 132.278 130.324 130.324C132.278 128.371 133.375 125.721 133.375 122.958V65.6667H122.958Z" fill="black"/>
<path fill-rule="evenodd" clip-rule="evenodd" d="M96.3191 85.7832C96.3191 87.8097 94.7425 89.4525 92.7976 89.4525C91.337 89.4525 90.084 88.5259 89.5507 87.206H76.1244C75.3776 87.206 74.9541 87.466 74.6945 87.7837C74.4077 88.1347 74.184 88.7293 74.184 89.6022C74.184 90.4752 74.4077 91.0698 74.6945 91.4208C74.9541 91.7385 75.3776 91.9985 76.1244 91.9985H85.036C85.8298 91.9985 86.4733 92.669 86.4733 93.4961C86.4733 94.3233 85.8298 94.9938 85.036 94.9938H72.6748C71.928 94.9938 71.5045 95.2537 71.2449 95.5715C70.9581 95.9225 70.7343 96.5171 70.7343 97.39C70.7343 98.263 70.9581 98.8575 71.2449 99.2085C71.5045 99.5263 71.928 99.7862 72.6748 99.7862H85.956L89.2517 93.1164C89.5228 92.5679 90.0653 92.2231 90.6574 92.2231H99.4996C100.049 90.9432 101.282 90.0515 102.715 90.0515C104.66 90.0515 106.237 91.6943 106.237 93.7208C106.237 95.7472 104.66 97.39 102.715 97.39C101.282 97.39 100.049 96.4983 99.4996 95.2184H91.4464L89.1893 99.7862H93.4959C94.061 98.5466 95.2737 97.6895 96.6785 97.6895C98.6234 97.6895 100.2 99.3323 100.2 101.359C100.2 103.385 98.6234 105.028 96.6785 105.028C95.2178 105.028 93.9648 104.101 93.4315 102.782H78.5679C77.8211 102.782 77.3976 103.042 77.138 103.359C76.8512 103.71 76.6275 104.305 76.6275 105.178C76.6275 106.051 76.8512 106.645 77.138 106.996C77.3976 107.314 77.8211 107.574 78.5679 107.574H88.8963C89.4615 106.334 90.6742 105.477 92.079 105.477C94.0238 105.477 95.6005 107.12 95.6005 109.147C95.6005 111.173 94.0238 112.816 92.079 112.816C90.6183 112.816 89.3653 111.889 88.832 110.569H78.5679C77.0868 110.569 75.8214 110.006 74.9491 108.938C74.104 107.904 73.7528 106.551 73.7528 105.178C73.7528 104.35 73.8804 103.529 74.1671 102.782H72.6748C71.1937 102.782 69.9283 102.218 69.056 101.15C68.2109 100.116 67.8596 98.7635 67.8596 97.39C67.8596 96.0165 68.2109 94.6641 69.056 93.6298C69.7413 92.7911 70.6693 92.2633 71.7538 92.0756C71.4459 91.3074 71.3093 90.4589 71.3093 89.6022C71.3093 88.2287 71.6605 86.8764 72.5056 85.842C73.3779 84.7744 74.6433 84.2107 76.1244 84.2107H89.615C90.1802 82.9711 91.3929 82.114 92.7976 82.114C94.7425 82.114 96.3191 83.7568 96.3191 85.7832ZM94.1631 85.7832C94.1631 86.569 93.5518 87.206 92.7976 87.206C92.0435 87.206 91.4322 86.569 91.4322 85.7832C91.4322 84.9975 92.0435 84.3605 92.7976 84.3605C93.5518 84.3605 94.1631 84.9975 94.1631 85.7832ZM102.715 95.1435C103.469 95.1435 104.081 94.5065 104.081 93.7208C104.081 92.935 103.469 92.298 102.715 92.298C101.961 92.298 101.35 92.935 101.35 93.7208C101.35 94.5065 101.961 95.1435 102.715 95.1435ZM93.4444 109.147C93.4444 109.932 92.8331 110.569 92.079 110.569C91.3248 110.569 90.7135 109.932 90.7135 109.147C90.7135 108.361 91.3248 107.724 92.079 107.724C92.8331 107.724 93.4444 108.361 93.4444 109.147ZM96.6785 102.782C97.4326 102.782 98.044 102.145 98.044 101.359C98.044 100.573 97.4326 99.936 96.6785 99.936C95.9243 99.936 95.313 100.573 95.313 101.359C95.313 102.145 95.9243 102.782 96.6785 102.782Z" fill="#6186B7"/>
</g>
<defs>
<clipPath id="clip0_901_7">
<rect width="683" height="182" fill="white"/>
</clipPath>
</defs>
</svg>
