<svg width="683" height="182" viewBox="0 0 683 182" fill="none" xmlns="http://www.w3.org/2000/svg">
<g clip-path="url(#clip0_901_7)">
<path d="M34.4167 39.625H138.583V60.4583H34.4167V39.625ZM122.958 65.6667H39.625V122.958C39.625 125.721 40.7225 128.371 42.676 130.324C44.6295 132.278 47.279 133.375 50.0417 133.375H122.958C125.721 133.375 128.371 132.278 130.324 130.324C132.278 128.371 133.375 125.721 133.375 122.958V65.6667H122.958Z" fill="black"/>
<path fill-rule="evenodd" clip-rule="evenodd" d="M96.3191 85.7832C96.3191 87.8097 94.7425 89.4525 92.7976 89.4525C91.337 89.4525 90.084 88.5259 89.5507 87.206H76.1244C75.3776 87.206 74.9541 87.466 74.6945 87.7837C74.4077 88.1347 74.184 88.7293 74.184 89.6022C74.184 90.4752 74.4077 91.0698 74.6945 91.4208C74.9541 91.7385 75.3776 91.9985 76.1244 91.9985H85.036C85.8298 91.9985 86.4733 92.669 86.4733 93.4961C86.4733 94.3233 85.8298 94.9938 85.036 94.9938H72.6748C71.928 94.9938 71.5045 95.2537 71.2449 95.5715C70.9581 95.9225 70.7343 96.5171 70.7343 97.39C70.7343 98.263 70.9581 98.8575 71.2449 99.2085C71.5045 99.5263 71.928 99.7862 72.6748 99.7862H85.956L89.2517 93.1164C89.5228 92.5679 90.0653 92.2231 90.6574 92.2231H99.4996C100.049 90.9432 101.282 90.0515 102.715 90.0515C104.66 90.0515 106.237 91.6943 106.237 93.7208C106.237 95.7472 104.66 97.39 102.715 97.39C101.282 97.39 100.049 96.4983 99.4996 95.2184H91.4464L89.1893 99.7862H93.4959C94.061 98.5466 95.2737 97.6895 96.6785 97.6895C98.6234 97.6895 100.2 99.3323 100.2 101.359C100.2 103.385 98.6234 105.028 96.6785 105.028C95.2178 105.028 93.9648 104.101 93.4315 102.782H78.5679C77.8211 102.782 77.3976 103.042 77.138 103.359C76.8512 103.71 76.6275 104.305 76.6275 105.178C76.6275 106.051 76.8512 106.645 77.138 106.996C77.3976 107.314 77.8211 107.574 78.5679 107.574H88.8963C89.4615 106.334 90.6742 105.477 92.079 105.477C94.0238 105.477 95.6005 107.12 95.6005 109.147C95.6005 111.173 94.0238 112.816 92.079 112.816C90.6183 112.816 89.3653 111.889 88.832 110.569H78.5679C77.0868 110.569 75.8214 110.006 74.9491 108.938C74.104 107.904 73.7528 106.551 73.7528 105.178C73.7528 104.35 73.8804 103.529 74.1671 102.782H72.6748C71.1937 102.782 69.9283 102.218 69.056 101.15C68.2109 100.116 67.8596 98.7635 67.8596 97.39C67.8596 96.0165 68.2109 94.6641 69.056 93.6298C69.7413 92.7911 70.6693 92.2633 71.7538 92.0756C71.4459 91.3074 71.3093 90.4589 71.3093 89.6022C71.3093 88.2287 71.6605 86.8764 72.5056 85.842C73.3779 84.7744 74.6433 84.2107 76.1244 84.2107H89.615C90.1802 82.9711 91.3929 82.114 92.7976 82.114C94.7425 82.114 96.3191 83.7568 96.3191 85.7832ZM94.1631 85.7832C94.1631 86.569 93.5518 87.206 92.7976 87.206C92.0435 87.206 91.4322 86.569 91.4322 85.7832C91.4322 84.9975 92.0435 84.3605 92.7976 84.3605C93.5518 84.3605 94.1631 84.9975 94.1631 85.7832ZM102.715 95.1435C103.469 95.1435 104.081 94.5065 104.081 93.7208C104.081 92.935 103.469 92.298 102.715 92.298C101.961 92.298 101.35 92.935 101.35 93.7208C101.35 94.5065 101.961 95.1435 102.715 95.1435ZM93.4444 109.147C93.4444 109.932 92.8331 110.569 92.079 110.569C91.3248 110.569 90.7135 109.932 90.7135 109.147C90.7135 108.361 91.3248 107.724 92.079 107.724C92.8331 107.724 93.4444 108.361 93.4444 109.147ZM96.6785 102.782C97.4326 102.782 98.044 102.145 98.044 101.359C98.044 100.573 97.4326 99.936 96.6785 99.936C95.9243 99.936 95.313 100.573 95.313 101.359C95.313 102.145 95.9243 102.782 96.6785 102.782Z" fill="#6186B7"/>
</g>
<defs>
<clipPath id="clip0_901_7">
<rect width="683" height="182" fill="white"/>
</clipPath>
</defs>
</svg>
