<?xml version="1.0" standalone="no"?>
<!DOCTYPE svg PUBLIC "-//W3C//DTD SVG 20010904//EN"
 "http://www.w3.org/TR/2001/REC-SVG-20010904/DTD/svg10.dtd">
<svg version="1.0" xmlns="http://www.w3.org/2000/svg"
 width="1024.000000pt" height="1024.000000pt" viewBox="0 1 1024.000000 1024.000000"
 preserveAspectRatio="xMidYMid meet">

<g transform="translate(0.000000,1024.000000) scale(0.100000,-0.100000)"
fill="#000000" stroke="none">
<path d="M0 5120 l0 -5120 5120 0 5120 0 0 5120 0 5120 -5120 0 -5120 0 0
-5120z m5621 3605 c660 -70 1257 -294 1808 -680 188 -132 323 -246 502 -424
390 -390 642 -781 832 -1291 64 -171 82 -234 79 -275 -2 -31 -22 -62 -49 -74
-16 -8 -177 -11 -518 -11 -545 0 -509 5 -480 -64 52 -124 116 -507 95 -570
-22 -68 -89 -94 -148 -56 -40 25 -52 54 -52 128 0 173 -92 510 -195 712 l-25
48 48 34 c26 19 64 44 84 56 l37 23 31 -60 30 -61 431 0 431 0 -7 28 c-25 104
-166 404 -273 584 -186 311 -523 696 -807 924 -541 432 -1085 664 -1810 771
-174 26 -729 26 -895 0 -423 -66 -743 -161 -1068 -317 -522 -252 -920 -575
-1287 -1045 -372 -475 -581 -981 -681 -1645 -31 -207 -42 -491 -25 -680 47
-529 220 -1070 481 -1503 202 -337 509 -685 833 -945 156 -125 204 -157 402
-269 220 -124 294 -160 485 -236 417 -166 859 -249 1335 -250 203 -1 324 9
540 44 139 22 475 100 585 135 41 13 80 24 87 24 12 0 163 -172 163 -187 0
-20 -350 -120 -601 -172 -244 -50 -367 -67 -594 -82 -396 -26 -845 21 -1210
126 -665 191 -1170 485 -1663 970 -354 347 -629 759 -813 1216 -63 159 -96
258 -144 444 -145 559 -170 1009 -84 1524 45 271 155 649 253 869 311 702 817
1283 1474 1690 435 270 841 422 1392 522 219 40 730 53 991 25z m133 -510
c406 -68 837 -247 1162 -481 102 -74 114 -89 114 -147 0 -40 -49 -87 -90 -87
-40 0 -67 14 -198 104 -203 140 -475 267 -732 341 -69 20 -132 40 -142 43 -15
6 -121 99 -238 209 -25 24 -40 43 -33 43 6 0 77 -11 157 -25z m-916 -85 c343
-27 646 -148 846 -339 262 -252 288 -550 66 -771 -82 -81 -153 -124 -278 -166
-121 -41 -251 -62 -412 -67 l-125 -3 -86 80 c-161 150 -314 209 -544 210 -154
0 -222 -15 -345 -76 -68 -34 -102 -60 -170 -128 -47 -47 -96 -105 -110 -128
-14 -23 -29 -42 -35 -42 -23 0 -288 -92 -388 -133 -121 -50 -270 -131 -399
-217 -48 -32 -86 -55 -85 -51 1 3 -2 7 -8 8 -5 1 -9 -4 -7 -11 1 -8 -10 -22
-25 -32 -16 -10 -34 -24 -41 -31 -8 -7 -18 -11 -23 -8 -5 4 -9 -2 -10 -12 0
-14 -2 -13 -10 5 -5 13 -6 29 -2 34 3 6 2 8 -4 5 -14 -9 -83 14 -83 27 0 6 -5
4 -10 -4 -8 -13 -11 -12 -24 5 -15 20 -15 20 -38 -4 -13 -13 -17 -20 -9 -16
10 6 12 4 7 -4 -4 -7 -13 -10 -19 -8 -12 4 -53 -34 -49 -46 1 -5 -1 -6 -6 -3
-5 3 -22 -9 -38 -27 -179 -197 -341 -448 -420 -647 -38 -96 -41 -84 -19 63 57
377 215 812 400 1097 109 170 339 421 505 553 274 219 616 386 979 477 359 90
646 108 949 60 219 -35 478 -131 631 -234 30 -20 56 -34 59 -32 15 16 -227
221 -338 287 -202 119 -501 199 -751 199 -142 0 -407 -35 -494 -65 -16 -6 -17
-5 -5 4 8 6 72 33 141 61 191 75 404 122 609 133 30 2 64 4 75 5 11 1 75 -3
143 -8z m1321 -685 c18 -30 47 -94 64 -142 29 -81 31 -98 31 -213 0 -108 -4
-136 -27 -205 -33 -98 -92 -190 -174 -271 -47 -47 -87 -74 -165 -112 -176 -86
-172 -86 -665 -90 l-433 -3 0 -47 c0 -217 -179 -421 -405 -463 -172 -32 -368
46 -477 188 -75 100 -93 156 -93 299 l0 121 42 84 c81 164 216 261 394 283
171 21 374 -76 469 -224 l32 -50 357 0 c456 0 567 16 721 103 80 45 201 169
239 246 87 172 98 423 25 576 l-15 30 23 -28 c13 -15 39 -52 57 -82z m1342
-85 c58 -30 92 -88 97 -165 5 -77 -20 -130 -81 -172 -35 -24 -50 -28 -119 -29
-79 -1 -79 -1 -153 -55 -40 -30 -74 -58 -74 -63 -1 -5 44 -55 98 -110 91 -92
173 -187 212 -246 l15 -22 97 67 c54 38 97 75 97 84 0 40 24 96 57 132 85 94
237 82 310 -24 24 -35 28 -50 28 -112 0 -62 -4 -77 -28 -114 -18 -27 -44 -50
-70 -62 -47 -21 -137 -25 -184 -9 -28 10 -39 4 -209 -111 -98 -68 -217 -150
-264 -184 l-85 -61 -5 -55 c-7 -69 -31 -113 -79 -144 -83 -55 -197 -40 -265
35 -78 86 -57 218 46 292 28 20 45 23 119 23 l87 0 91 63 c50 35 91 67 91 72
0 22 -283 348 -311 358 -13 5 -193 -139 -250 -199 -42 -45 -50 -49 -91 -49
-37 0 -52 6 -77 29 -26 24 -31 36 -31 75 0 56 2 58 168 180 67 49 122 93 122
97 0 10 -141 107 -230 159 -71 42 -84 60 -82 118 2 43 17 69 52 87 48 25 84
19 133 -22 24 -21 73 -58 108 -83 35 -25 90 -69 121 -99 l57 -53 48 39 c26 22
69 54 96 73 46 33 47 34 47 87 0 92 47 156 139 190 43 16 99 10 152 -17z
m-3928 -1037 c7 -120 25 -189 79 -304 22 -49 39 -90 37 -92 -2 -1 -26 -13 -54
-27 -88 -44 -247 -155 -361 -253 -177 -153 -326 -329 -437 -519 -100 -169
-154 -298 -207 -488 -15 -58 -29 -98 -29 -90 -1 8 -4 26 -6 40 -5 22 -4 22 4
5 8 -17 9 -15 8 12 -1 18 -3 33 -5 33 -1 0 -11 -15 -22 -32 -18 -29 -20 -30
-20 -10 0 19 -5 22 -40 22 -22 0 -40 -4 -40 -10 0 -5 -22 -10 -50 -10 -57 0
-111 -27 -122 -62 -7 -20 -7 -20 -4 4 2 15 -2 49 -9 75 l-12 47 -8 -74 c-6
-54 -10 -68 -15 -50 -22 86 -27 -251 -5 -420 18 -140 59 -332 83 -393 15 -34
15 -37 2 -37 -5 0 -10 9 -10 20 0 17 -3 18 -26 10 -40 -15 -60 -12 -72 13 -6
12 -11 16 -11 10 -1 -7 -6 -13 -13 -13 -6 0 -9 3 -5 6 3 4 -1 13 -9 22 -9 8
-13 23 -11 34 3 10 2 16 -3 13 -14 -9 -76 161 -115 315 -72 285 -74 599 -5
855 125 466 458 894 925 1190 165 104 497 254 566 255 13 0 17 -17 22 -97z
m2524 -10 c33 -32 168 -167 299 -301 l239 -244 -53 -103 -54 -103 280 -283
279 -283 -72 -151 c-39 -82 -100 -210 -136 -283 l-64 -133 -52 36 -52 35 25
73 c16 44 37 82 54 97 29 26 184 207 234 273 l28 37 -398 0 -397 0 59 -46 c32
-25 121 -100 196 -166 l137 -121 -30 -81 c-16 -44 -35 -86 -42 -92 -6 -7 -147
-44 -312 -82 -165 -39 -358 -86 -430 -105 l-130 -33 -20 -60 -20 -59 -3 385
-2 386 -67 11 c-225 39 -403 231 -447 483 l-13 75 -27 -60 c-46 -101 -95 -252
-117 -359 -28 -135 -32 -389 -7 -521 75 -395 319 -771 673 -1035 150 -112 249
-172 551 -336 309 -167 404 -225 554 -338 183 -138 393 -359 509 -539 l44 -67
36 27 c163 121 398 339 535 498 331 381 571 816 735 1332 44 138 57 166 84
189 27 22 38 26 80 21 73 -7 102 -40 101 -115 -1 -111 -120 -451 -257 -734
-285 -592 -655 -1038 -1201 -1449 -83 -61 -96 -76 -90 -93 10 -30 64 -240 64
-249 0 -4 -35 19 -77 51 -218 165 -434 284 -1043 574 -380 181 -590 288 -590
301 0 6 -3 8 -6 4 -11 -10 -105 43 -98 55 4 6 3 8 -4 5 -15 -10 -43 3 -35 16
3 6 1 7 -5 3 -17 -10 -274 155 -261 168 3 3 20 -8 38 -24 33 -30 47 -38 36
-20 -3 6 -1 10 6 10 9 0 9 4 -1 15 -6 8 -9 18 -7 22 3 5 -3 9 -13 9 -18 0 -18
-2 -3 -18 26 -29 8 -32 -22 -4 -14 13 -35 23 -45 21 -11 -2 -23 1 -26 7 -5 7
-2 8 6 3 10 -6 12 -4 7 8 -3 8 0 18 8 21 9 3 12 0 8 -10 -3 -7 0 -14 6 -14 13
0 15 26 3 34 -5 3 -22 1 -38 -4 -16 -4 -23 -9 -16 -9 7 -1 10 -6 6 -12 -8 -14
-34 11 -38 36 -3 21 -26 34 -26 15 0 -6 4 -9 8 -6 5 3 9 -1 9 -9 0 -10 -5 -10
-23 3 -13 9 -22 22 -19 29 2 7 -2 10 -9 7 -17 -7 -138 95 -129 108 3 7 1 8 -5
4 -14 -8 -191 161 -287 274 -210 249 -326 437 -430 700 -97 242 -137 447 -138
705 -1 314 56 538 202 784 71 120 203 256 366 378 133 100 205 172 260 263
l36 60 305 0 c239 0 321 3 382 16 98 20 217 67 279 110 26 18 50 33 53 33 3 1
33 -25 67 -56z m-3561 -70 c-7 -7 -26 7 -26 19 0 6 6 6 15 -2 9 -7 13 -15 11
-17z m44 -17 c-16 -16 -12 -36 8 -36 13 0 14 2 3 9 -9 6 -10 11 -2 15 6 4 11
2 11 -5 0 -8 4 -8 15 1 10 8 15 9 15 1 0 -12 -59 -45 -62 -34 -7 35 -3 60 9
60 9 0 10 -4 3 -11z m-106 -25 c3 -5 -1 -14 -8 -20 -10 -9 -16 -9 -21 -1 -4 6
-1 9 7 8 7 -2 12 3 11 10 -3 14 3 16 11 3z m141 -31 c-3 -5 -12 -10 -18 -10
-7 0 -6 4 3 10 19 12 23 12 15 0z m-45 -35 c0 -1 -12 -12 -27 -26 -20 -17 -23
-18 -10 -3 9 11 15 23 12 26 -3 2 2 5 10 5 8 0 15 -1 15 -2z m1538 -418 c23
-9 42 -20 42 -24 0 -5 -9 -21 -21 -38 -65 -96 -169 -334 -221 -505 -16 -52
-27 -82 -25 -67 3 20 -1 31 -14 38 -11 5 -19 6 -18 2 4 -22 -4 -28 -33 -30
-18 -2 -42 4 -55 12 -27 18 -83 20 -83 3 -1 -8 -6 -6 -14 4 -12 16 -16 9 -35
-57 -28 -93 -30 -123 -35 -643 -4 -390 -3 -424 12 -429 114 -36 204 -112 250
-211 24 -50 27 -69 27 -162 0 -92 -3 -112 -26 -160 -14 -30 -44 -75 -67 -101
l-40 -45 62 -115 c58 -104 67 -116 111 -139 27 -14 93 -48 147 -77 l99 -52 36
40 c73 81 216 125 324 99 144 -34 240 -125 275 -259 15 -61 15 -88 -2 -188 -5
-25 -2 -32 14 -37 11 -4 73 -35 137 -70 115 -62 119 -63 151 -50 72 30 180 8
231 -47 112 -122 30 -339 -129 -339 -67 0 -117 18 -161 59 -32 31 -42 48 -51
95 l-12 57 -148 78 -149 78 -61 -31 c-56 -28 -69 -31 -156 -30 -115 1 -166 20
-243 93 -64 60 -98 124 -112 210 l-11 64 -173 92 c-96 51 -182 103 -192 116
-9 13 -47 81 -83 150 l-67 127 -92 4 c-81 3 -99 8 -155 38 -78 42 -154 124
-184 200 -16 41 -22 78 -22 145 -1 81 2 97 31 157 38 81 103 147 178 183 l55
26 0 462 c0 515 2 533 66 762 4 11 7 28 7 38 1 9 4 17 8 17 4 0 10 8 14 18 5
14 4 15 -6 5 -19 -19 -34 -16 -18 4 8 9 9 14 2 10 -6 -4 -14 -1 -17 5 -9 18 0
-33 9 -55 6 -13 4 -16 -9 -11 -9 3 -13 11 -9 17 3 5 2 7 -4 4 -6 -4 -20 4 -32
16 l-21 23 123 121 c135 134 278 256 380 326 l67 46 52 -28 c29 -15 72 -35 96
-44z m4773 13 c30 -17 46 -58 68 -176 39 -204 50 -471 31 -709 -12 -155 -29
-254 -47 -281 -35 -54 -123 -55 -167 -3 -31 36 -31 44 -10 225 20 175 14 564
-11 689 -9 44 -19 107 -22 141 -5 58 -4 61 27 92 25 25 40 32 71 32 22 0 49
-5 60 -10z m-419 -46 c48 -34 79 -87 86 -149 3 -35 -1 -57 -22 -100 -37 -74
-95 -110 -181 -110 -70 0 -112 21 -158 78 -59 72 -47 198 25 264 65 61 176 69
250 17z m-5077 -414 c-4 -6 1 -22 9 -35 9 -14 12 -25 7 -25 -5 0 -13 9 -16 20
-3 11 -11 20 -17 20 -6 0 -6 6 2 15 14 17 24 20 15 5z m36 -22 c11 -21 11 -22
-4 -9 -10 7 -17 17 -17 22 0 15 9 10 21 -13z m39 -52 c0 -3 -4 -8 -10 -11 -5
-3 -10 -1 -10 4 0 6 5 11 10 11 6 0 10 -2 10 -4z m4923 -116 c135 -66 201
-176 201 -336 0 -82 -3 -97 -32 -157 -40 -81 -111 -148 -190 -178 -66 -25
-192 -31 -258 -11 -137 40 -254 202 -254 351 0 133 83 272 200 331 60 30 107
39 190 36 62 -2 88 -8 143 -36z m-4516 -2 c-3 -7 -5 -2 -5 12 0 14 2 19 5 13
2 -7 2 -19 0 -25z m-197 -6 c0 -15 -2 -15 -10 -2 -13 20 -13 33 0 25 6 -3 10
-14 10 -23z m210 -32 c0 -5 -5 -10 -11 -10 -5 0 -7 5 -4 10 3 6 8 10 11 10 2
0 4 -4 4 -10z m-13 -52 c-3 -7 -5 -2 -5 12 0 14 2 19 5 13 2 -7 2 -19 0 -25z
m-1573 -435 c-10 -40 -14 -41 -14 -5 0 18 5 32 10 32 6 0 8 -11 4 -27z m169
10 c-13 -2 -33 -2 -45 0 -13 2 -3 4 22 4 25 0 35 -2 23 -4z m4271 -228 c25
-20 46 -38 46 -40 0 -14 -115 -291 -123 -296 -6 -4 -96 -33 -202 -64 l-191
-58 -210 81 c-115 44 -217 84 -226 87 -16 6 -15 12 12 65 25 49 34 58 62 63
30 5 577 146 703 181 72 20 77 20 129 -19z m1056 -50 c32 -17 60 -61 60 -95 0
-22 -41 -152 -65 -205 -7 -16 -32 -74 -55 -128 -75 -174 -209 -376 -364 -548
-106 -118 -282 -278 -328 -297 -93 -40 -182 82 -115 159 12 15 49 47 82 71 79
60 233 220 323 336 134 174 219 337 296 569 20 61 45 117 54 126 35 30 70 34
112 12z m520 -134 c79 -40 124 -142 100 -230 -15 -56 -72 -119 -115 -127 -31
-5 -35 -11 -59 -80 -106 -298 -346 -663 -577 -878 -48 -44 -90 -93 -100 -116
-39 -87 -171 -93 -214 -10 -37 71 -7 148 74 190 79 40 310 307 445 514 51 78
137 243 176 337 l31 75 -25 49 c-96 180 82 365 264 276z m-6082 -456 c-3 -3
-9 2 -12 12 -6 14 -5 15 5 6 7 -7 10 -15 7 -18z m49 -37 c-3 -8 -6 -5 -6 6 -1
11 2 17 5 13 3 -3 4 -12 1 -19z m32 0 c-5 -10 -11 -18 -12 -18 -2 0 -3 8 -3
18 0 10 6 19 13 19 8 0 9 -6 2 -19z m3536 -67 c50 -23 137 -59 195 -79 104
-35 107 -37 240 -155 74 -66 173 -149 220 -185 47 -36 90 -70 95 -75 23 -21
-459 223 -535 271 -83 53 -208 153 -270 217 -30 32 -50 56 -45 53 6 -2 51 -23
100 -47z m-2169 -946 c49 -14 99 -56 123 -103 7 -12 12 -46 12 -76 l1 -54 212
-105 c370 -186 707 -271 1111 -284 212 -6 443 19 587 63 98 30 126 28 169 -16
23 -23 29 -37 29 -73 0 -79 -60 -128 -152 -126 -29 1 -91 -5 -138 -14 -248
-45 -566 -48 -830 -8 -369 56 -766 198 -1026 366 -64 42 -74 45 -137 45 -73 0
-125 20 -163 62 -103 113 -49 293 99 328 47 11 49 11 103 -5z"/>
<path d="M2959 6433 c-13 -16 -12 -17 4 -4 9 7 17 15 17 17 0 8 -8 3 -21 -13z"/>
<path d="M2863 6375 c0 -8 4 -12 9 -9 5 3 6 10 3 15 -9 13 -12 11 -12 -6z"/>
<path d="M2575 6351 c-3 -5 -2 -12 3 -15 5 -3 9 1 9 9 0 17 -3 19 -12 6z"/>
<path d="M2536 6332 c-3 -5 1 -9 9 -9 8 0 12 4 9 9 -3 4 -7 8 -9 8 -2 0 -6 -4
-9 -8z"/>
<path d="M2723 6312 c-9 -5 -6 -12 10 -21 19 -13 21 -12 10 1 -7 8 -10 18 -6
21 9 9 1 8 -14 -1z"/>
<path d="M2665 6269 c4 -5 1 -17 -6 -25 -10 -12 -10 -15 2 -12 29 6 37 33 13
42 -9 3 -12 2 -9 -5z"/>
<path d="M2708 6273 c7 -3 16 -2 19 1 4 3 -2 6 -13 5 -11 0 -14 -3 -6 -6z"/>
<path d="M4240 6681 c-101 -21 -184 -92 -220 -188 -56 -150 7 -309 153 -385
61 -32 182 -32 254 1 187 84 234 324 94 484 -59 67 -188 108 -281 88z"/>
<path d="M2262 4620 c0 -19 2 -27 5 -17 2 9 2 25 0 35 -3 9 -5 1 -5 -18z"/>
<path d="M2566 4638 c3 -5 10 -6 15 -3 13 9 11 12 -6 12 -8 0 -12 -4 -9 -9z"/>
<path d="M2216 3773 c-6 -14 -5 -15 5 -6 7 7 10 15 7 18 -3 3 -9 -2 -12 -12z"/>
<path d="M5415 5625 c83 -47 158 -95 168 -107 34 -44 62 -72 101 -100 38 -27
42 -28 172 -28 l132 0 113 -127 c62 -71 116 -129 120 -131 4 -2 -22 70 -58
160 -36 90 -67 177 -69 193 -4 23 7 51 46 119 27 49 50 93 50 98 0 4 -208 8
-462 8 l-463 0 150 -85z"/>
<path d="M6492 5253 c-6 -11 -6 -28 -1 -41 7 -19 15 -23 41 -20 26 2 34 8 36
26 2 13 -2 30 -8 38 -17 19 -57 18 -68 -3z"/>
<path d="M6363 4614 c-7 -3 -13 -16 -13 -29 0 -44 50 -60 74 -22 20 32 -22 67
-61 51z"/>
<path d="M5991 4566 c-21 -26 -10 -69 22 -80 23 -8 31 -6 50 12 20 21 21 24 7
50 -18 31 -60 41 -79 18z"/>
<path d="M5037 3019 c7 -7 15 -10 18 -7 3 3 -2 9 -12 12 -14 6 -15 5 -6 -5z"/>
<path d="M5066 3001 c-3 -5 2 -15 12 -22 15 -12 16 -12 5 2 -7 9 -10 19 -6 22
3 4 4 7 0 7 -3 0 -8 -4 -11 -9z"/>
<path d="M5110 2961 c0 -6 4 -13 10 -16 6 -3 7 1 4 9 -7 18 -14 21 -14 7z"/>
<path d="M5170 2936 c7 -7 13 -7 20 0 6 6 3 10 -10 10 -13 0 -16 -4 -10 -10z"/>
<path d="M5685 2810 c-3 -6 1 -7 9 -4 18 7 21 14 7 14 -6 0 -13 -4 -16 -10z"/>
<path d="M5374 2779 c-4 -7 4 -20 17 -30 26 -20 44 -25 34 -9 -3 6 0 10 7 10
9 0 9 3 -2 10 -8 5 -23 7 -32 4 -20 -6 -25 12 -5 19 9 4 9 6 0 6 -6 1 -15 -4
-19 -10z"/>
<path d="M5486 2707 c-17 -12 -17 -14 -3 -20 10 -4 16 -2 14 6 -1 7 4 11 11 9
8 -1 11 2 7 8 -8 13 -8 13 -29 -3z"/>
<path d="M5620 2620 c-9 -6 -10 -10 -3 -10 6 0 15 5 18 10 8 12 4 12 -15 0z"/>
<path d="M5656 2622 c-3 -5 1 -9 9 -9 8 0 12 4 9 9 -3 4 -7 8 -9 8 -2 0 -6 -4
-9 -8z"/>
<path d="M3566 5429 c3 -5 -4 -17 -15 -28 -11 -11 -16 -23 -12 -26 5 -3 18 10
29 28 14 25 16 34 6 34 -7 0 -11 -4 -8 -8z"/>
<path d="M3523 5349 c-2 -23 3 -25 10 -4 4 8 3 16 -1 19 -4 3 -9 -4 -9 -15z"/>
<path d="M3441 5327 c-13 -21 -12 -21 5 -5 10 10 16 20 13 22 -3 3 -11 -5 -18
-17z"/>
<path d="M3695 5219 c-4 -6 -4 -13 -1 -16 3 -4 6 -1 6 6 0 7 5 9 12 5 7 -4 8
-3 4 4 -9 15 -13 15 -21 1z"/>
<path d="M3667 5163 c-4 -3 -7 -11 -7 -17 0 -6 5 -5 12 2 6 6 9 14 7 17 -3 3
-9 2 -12 -2z"/>
<path d="M3444 3799 c-17 -5 -49 -29 -72 -52 -153 -167 34 -414 236 -310 20
11 51 39 67 62 26 37 30 51 30 110 0 58 -4 74 -29 109 -50 73 -146 106 -232
81z"/>
<path d="M4394 2862 c-23 -11 -51 -34 -64 -52 -28 -39 -37 -109 -20 -150 16
-40 71 -87 114 -99 95 -26 206 56 206 151 0 123 -124 202 -236 150z"/>
<path d="M8125 4908 c-101 -59 -117 -207 -32 -289 87 -84 217 -70 283 30 54
82 36 188 -43 249 -51 38 -150 43 -208 10z"/>
</g>
</svg>
