<svg width="332" height="332" viewBox="0 0 332 332" fill="none" xmlns="http://www.w3.org/2000/svg">
<g clip-path="url(#clip0_704_13)">
<circle cx="166" cy="166" r="166" fill="#6186B7"/>
<path fill-rule="evenodd" clip-rule="evenodd" d="M231 87.5C231 101.031 220.031 112 206.5 112C196.338 112 187.621 105.813 183.91 97H90.5C85.3043 97 82.358 98.7359 80.5518 100.857C78.5565 103.201 77 107.171 77 113C77 118.829 78.5565 122.799 80.5518 125.143C82.358 127.264 85.3043 129 90.5 129H152.5C158.023 129 162.5 133.477 162.5 139C162.5 144.523 158.023 149 152.5 149H66.5C61.3043 149 58.358 150.736 56.5518 152.857C54.5565 155.201 53 159.171 53 165C53 170.829 54.5565 174.799 56.5518 177.143C58.358 179.264 61.3043 181 66.5 181H158.901L181.83 136.465C183.716 132.802 187.49 130.5 191.61 130.5H253.127C256.953 121.954 265.531 116 275.5 116C289.031 116 300 126.969 300 140.5C300 154.031 289.031 165 275.5 165C265.531 165 256.953 159.046 253.127 150.5H197.099L181.396 181H211.358C215.29 172.723 223.727 167 233.5 167C247.031 167 258 177.969 258 191.5C258 205.031 247.031 216 233.5 216C223.338 216 214.621 209.813 210.91 201H107.5C102.304 201 99.358 202.736 97.5518 204.857C95.5565 207.201 94 211.171 94 217C94 222.829 95.5565 226.799 97.5518 229.143C99.358 231.264 102.304 233 107.5 233H179.358C183.29 224.723 191.727 219 201.5 219C215.031 219 226 229.969 226 243.5C226 257.031 215.031 268 201.5 268C191.338 268 182.621 261.813 178.91 253H107.5C97.1957 253 88.392 249.236 82.3232 242.107C76.4435 235.201 74 226.171 74 217C74 211.471 74.8883 205.992 76.8823 201H66.5C56.1957 201 47.392 197.236 41.3232 190.107C35.4435 183.201 33 174.171 33 165C33 155.829 35.4435 146.799 41.3232 139.893C46.0911 134.292 52.5471 130.768 60.0926 129.515C57.9506 124.386 57 118.72 57 113C57 103.829 59.4435 94.7988 65.3232 87.8925C71.392 80.7641 80.1957 77 90.5 77H184.358C188.29 68.7227 196.727 63 206.5 63C220.031 63 231 73.969 231 87.5ZM216 87.5C216 92.7467 211.747 97 206.5 97C201.253 97 197 92.7467 197 87.5C197 82.2533 201.253 78 206.5 78C211.747 78 216 82.2533 216 87.5ZM275.5 150C280.747 150 285 145.747 285 140.5C285 135.253 280.747 131 275.5 131C270.253 131 266 135.253 266 140.5C266 145.747 270.253 150 275.5 150ZM211 243.5C211 248.747 206.747 253 201.5 253C196.253 253 192 248.747 192 243.5C192 238.253 196.253 234 201.5 234C206.747 234 211 238.253 211 243.5ZM233.5 201C238.747 201 243 196.747 243 191.5C243 186.253 238.747 182 233.5 182C228.253 182 224 186.253 224 191.5C224 196.747 228.253 201 233.5 201Z" fill="white"/>
</g>
<defs>
<clipPath id="clip0_704_13">
<rect width="332" height="332" fill="white"/>
</clipPath>
</defs>
</svg>
